PathFileType	4	(X/Y/Z)	Walk1.trc
DataRate	CameraRate	NumFrames	NumMarkers	Units	OrigDataRate	OrigDataStartFrame	OrigNumFrames
200.000000	200.000000	9	56	mm	200.000000	416	536
Frame#	Times		RBHD		C7		T10		CLAV		RBack		LASI		RASI		LPSI		RACR1		RUA1		RElbow		RFA1		RWRR		RWRU		RCAR		LACR1		LElbow		LElbowM		LFA1		LWRR		LWRU		RTH1		RTH3		RTH2		RTH4		RLFC		RTB1		RTB3		RTB2		RTB4		RMMAL		RMT1		RMT5		LTH3		LTH2		LTH4		LTB1		RPSI		LBHD		LLFC		LTB4		LTH1		LTB3		LFHD		RElbowM		LMT1		LCAL		LMT5		RLMAL		LLMAL		LTB2		LCAR		RToe		LToe		LUA1		RCAL
			X1	Y1	Z1	X2	Y2	Z2	X3	Y3	Z3	X4	Y4	Z4	X5	Y5	Z5	X6	Y6	Z6	X7	Y7	Z7	X8	Y8	Z8	X9	Y9	Z9	X10	Y10	Z10	X11	Y11	Z11	X12	Y12	Z12	X13	Y13	Z13	X14	Y14	Z14	X15	Y15	Z15	X16	Y16	Z16	X17	Y17	Z17	X18	Y18	Z18	X19	Y19	Z19	X20	Y20	Z20	X21	Y21	Z21	X22	Y22	Z22	X23	Y23	Z23	X24	Y24	Z24	X25	Y25	Z25	X26	Y26	Z26	X27	Y27	Z27	X28	Y28	Z28	X29	Y29	Z29	X30	Y30	Z30	X31	Y31	Z31	X32	Y32	Z32	X33	Y33	Z33	X34	Y34	Z34	X35	Y35	Z35	X36	Y36	Z36	X37	Y37	Z37	X38	Y38	Z38	X39	Y39	Z39	X40	Y40	Z40	X41	Y41	Z41	X42	Y42	Z42	X43	Y43	Z43	X44	Y44	Z44	X45	Y45	Z45	X46	Y46	Z46	X47	Y47	Z47	X48	Y48	Z48	X49	Y49	Z49	X50	Y50	Z50	X51	Y51	Z51	X52	Y52	Z52	X53	Y53	Z53	X54	Y54	Z54	X55	Y55	Z55	X56	Y56	Z56

416	2.08	612.3	1563.4	382	596.33	1432.9	310.48	506.08	1122.3	298.09	733.62	1353.3	300.68	524.32	1345	398.29	689.92	942.96	141.94	701.31	932.89	444.13	519.91	951.4	243.55	658.43	1387.7	462.3	577.82	1206.9	539.76	507.6	1091.6	557.35	519.21	945.09	586.56	556.41	802.95	548.73	486.1	816.99	579.89	517.89	755.95	589.55	640.49	1422.7	138.35	583.81	1098.5	19.04	558.76	1093.4	95.782	711.93	997.44	-1.0355	796.45	922.74	46.604	736.26	881.28	10.106	683.57	727.47	498.75	763.67	557.18	474.43	783.07	673.52	459.4	723.62	642.04	491.82	806.02	470.45	456.28	873.29	399.08	379.4	928.97	216.93	385.86	885.79	305.33	455.27	902.49	310.82	384.6	930.67	122.13	341.02	1065.2	92.796	347.31	1042.2	79.829	427.9	595.82	557.75	136.17	679.46	635.59	161.1	614.47	644.07	119.11	565.82	348.03	220.34	518.28	948.83	348.34	610.11	1562.6	243.91	553.79	444.17	155.86	526.92	264.04	232.47	635.53	739.04	108.3	491.78	179.16	243.61	788.86	1608.9	264.23	492.66	1070.9	463.56	550.32	35.617	297.41	338.31	42.566	274.44	519.12	30.186	207.12	907.57	99.024	425.29	392.14	78.748	225.45	500.42	267.17	165.6	819.45	873.23	0.31349	1104.4	116.93	374.82	598.92	25.202	282.41	609.73	1229.2	38.253	878.6	38.061	382.7
417	2.085	617.76	1562.2	382.71	602.07	1431.7	311.16	512.06	1121.4	298.43	739.37	1352.1	301.25	529.69	1343.8	398.61	695.4	941.55	142.23	707.5	932.02	444.35	525.81	950.2	244.4	663.98	1386.5	462.85	582.72	1205.8	539.9	512.11	1090.7	557.39	523.03	944.14	586.31	560.34	801.42	548.69	489.41	816.19	579.54	521.03	755.05	589.31	646.42	1421.7	138.94	590.58	1097.7	18.508	565.5	1092.2	95.821	719.38	997.14	-0.60377	804.47	923.15	47.327	744.48	881.36	10.849	689.69	726.23	499.07	769.83	555.89	474.5	789.25	672.21	459.09	729.93	641.08	491.98	812.66	469.58	456.01	880.46	398.87	379.1	938.21	217.43	385.57	894.13	305.33	455.05	910.56	310.96	384.43	941.06	122.78	340.55	1076	94.736	346.71	1053.2	80.967	427.39	599.3	557.04	136.65	683.99	634.39	161.21	619.14	643.25	119.3	568.33	347.19	220.65	524.49	947.8	349.02	615.7	1561.4	244.53	557.67	443.7	155.92	528.72	263.63	232.65	640.39	737.58	108.2	493.16	178.92	243.71	794.56	1607.7	265.01	497.07	1070	463.69	550.24	35.325	297.6	338.23	43.851	274.05	519.14	30.111	207.16	918.11	99.119	425.06	392.6	79.455	225.33	502.27	267.07	165.81	827.76	873.76	1.1754	1115.1	118.93	374.19	598.97	25.012	282.53	616.22	1228.4	38.492	889.79	38.064	382.08
418	2.09	623.42	1560.9	383.4	607.59	1430.3	311.65	517.92	1120	298.89	745.05	1350.9	301.85	535.15	1342.3	398.78	701.71	940.22	142.32	713.65	931.16	444.63	531.77	948.79	244.93	669.43	1385.2	463.39	587.71	1204.6	540.22	516.46	1089.6	557.6	527.07	943.11	586.26	564.23	800.32	548.83	492.96	815.54	579.12	524.5	754.1	589.09	652.44	1420.8	139.45	597.3	1096.8	18.313	572.18	1091	95.9	726.64	996.88	-0.0097942	812.41	923.58	48.071	752.72	881.23	11.383	696.42	725.21	499.3	776.55	554.91	474.35	795.57	671.22	458.61	736.73	639.92	492.04	819.11	468.66	455.91	887.73	398.8	378.87	946.72	217.7	385.15	902.2	305.12	454.72	918.39	310.97	384.27	950.68	123.2	339.98	1086.1	96.482	346.17	1063.1	81.984	426.54	603.42	556.4	136.85	688.43	633.11	161.27	623.27	642.45	119.8	570.96	346.39	221.01	530.55	946.53	349.62	621.29	1560.2	245.33	561.22	443.02	156.23	530.43	263.35	232.97	645.53	736.44	108.58	494.23	178.84	243.82	800.2	1606.6	265.85	501.83	1069	463.69	550.28	35.318	297.68	338.4	44.943	273.92	519.18	30.082	207.16	928.04	99.14	424.59	392.9	80.209	225.24	504.1	266.92	165.96	835.87	874.21	1.9505	1125.1	120.74	373.56	599.04	24.966	282.66	622.79	1227.3	38.635	900.26	38.03	381.16
419	2.095	629.03	1559.6	384.38	613.28	1429	312.03	523.65	1118.6	299.16	750.76	1349.8	302.48	540.75	1341	398.78	708.17	938.98	142.51	719.76	930.33	444.77	537.79	947.41	245.62	674.66	1384.1	464.1	592.5	1203.5	540.69	521.02	1088.6	557.57	531.96	942.38	586.23	568.15	799.46	549.22	496.66	814.38	578.98	528.17	753.05	588.67	658.57	1419.8	139.88	604.3	1095.7	18.189	578.69	1090.1	95.769	734.1	996.49	0.34206	820.01	923.9	48.899	760.72	881.01	12.187	703.51	724.46	499.48	783.74	553.9	474.31	801.89	670.36	458.29	743.9	638.89	492.02	825.83	467.82	455.93	894.83	398.46	378.77	955.02	217.73	384.62	909.81	304.54	454.51	926.16	310.87	383.87	959.78	123.36	339.32	1095.2	97.823	345.73	1072.5	82.703	426.15	607.44	555.74	136.94	692.92	631.85	161.33	627.74	641.74	120.15	573.44	345.58	221.42	536.52	945.27	350.22	626.84	1559.3	246.19	563.77	442.36	157.17	532.53	262.9	232.96	650.57	735.57	109.49	495.09	178.65	243.97	805.72	1605.6	266.92	506.37	1068.3	463.6	550.29	35.351	297.69	338.63	45.71	273.97	519.19	30.048	207.2	936.99	99.303	423.75	393.16	80.828	225.31	506.28	266.79	166.21	843.9	874.45	2.8914	1134.3	122.36	373.17	599.1	24.938	282.77	629.2	1226.4	38.977	909.74	37.373	379.97
420	2.1	634.56	1558.3	385.08	618.98	1427.9	312.33	529.86	1117.4	299.9	756.68	1348.6	302.9	546.53	1339.6	399.04	714.58	937.72	142.59	726.12	929.28	444.82	543.9	946.42	245.99	680.09	1382.7	464.54	597.47	1202.3	540.81	525.64	1087.6	557.42	535.69	941.17	586.36	572	798.75	549.51	500.55	813.35	578.93	531.89	751.97	588.5	664.46	1418.9	140.51	610.94	1094.6	18.237	585.22	1089.1	95.656	741.53	996.11	0.86236	827.62	923.98	49.709	768.67	880.93	12.707	710.78	723.65	499.72	791.26	553.35	474.29	808.75	669.74	457.79	751.3	638.02	492.45	833.11	467.06	455.88	901.85	397.8	378.92	962.88	217.46	384.2	917.09	304	454.22	933.48	310.57	383.71	968.18	123.38	338.59	1103.8	98.904	345.13	1081	83.261	425.39	611.23	555.19	137.42	697.25	630.72	161.54	631.97	640.89	120.5	576.47	345.01	221.52	542.71	944.04	350.85	632.45	1558.1	246.99	566.93	441.74	157.58	534.5	262.47	233.29	655.61	734.87	110.01	496.62	178.6	244.05	811.5	1604.4	267.66	511.11	1067.6	463.63	550.32	35.266	297.69	338.86	46.701	273.96	519.18	30.006	207.21	945.19	98.901	422.99	393.38	81.48	225.38	508.31	266.74	166.29	851.81	874.76	4.0268	1142.6	123.55	372.71	599.14	24.869	282.88	635.67	1225.6	39.232	918.71	36.82	378.72
421	2.105	640.06	1557.1	385.65	624.62	1426.7	312.73	536.03	1116.2	300.08	762.35	1347.5	303.6	552.18	1338.4	399.39	720.56	936.35	142.89	732.24	928.42	445.31	549.9	945.19	246.74	685.63	1381.4	464.99	602.68	1201.2	541.08	530.6	1086.5	557.43	539.79	939.98	586.57	576	798.01	549.84	504.25	812.36	578.87	535.66	750.74	588.49	670.35	1417.8	141.07	617.81	1093.8	18.385	591.89	1087.8	95.752	748.68	995.61	1.4565	834.94	923.97	50.587	776.47	880.66	13.449	718	722.95	500.11	798.75	552.89	474.43	816.02	669.36	457.32	758.98	637.56	492.93	840.66	466.3	455.7	909.27	397.42	378.83	970.53	216.99	383.66	924.19	303.19	453.95	940.98	309.93	383.4	975.8	123.21	337.79	1111.6	99.416	344.46	1088.6	83.476	424.84	615.42	554.49	137.64	701.76	629.42	161.76	636.52	640.18	120.88	579.23	344.26	221.7	549.03	942.94	351.73	637.91	1556.9	247.6	570.4	441.3	157.84	536.64	262.08	233.43	660.53	734.11	110.27	498.12	178.66	244.04	817.09	1603.5	268.79	515.96	1066.7	463.64	550.33	35.168	297.79	338.99	48.246	273.7	519.18	29.926	207.19	952.79	98.012	422.17	393.81	82.373	225.22	510.2	266.53	166.56	859.81	875.06	4.7755	1150.2	124.1	372.22	599.15	24.721	283	642.1	1224.7	39.357	926.78	36.089	377.59
422	2.11	645.25	1555.6	386.31	630.44	1425.2	313.05	542.02	1114.8	300.33	768.25	1346.5	304.18	557.95	1336.9	399.49	726.41	934.92	143.3	738.43	927.6	445.61	555.79	944.35	247.47	691.31	1380	465.44	607.68	1199.9	541.48	535.44	1085.5	557.52	543.94	938.96	586.71	580.31	796.87	550.33	508.43	811.13	578.77	539.51	749.48	588.42	676.41	1416.7	141.62	624.51	1092.8	18.502	598.5	1086.4	95.779	755.81	995.21	1.7981	842.48	924.1	51.406	784.27	880.36	14.098	725.39	722.41	500.57	806.68	552.5	474.66	823.62	669.1	456.76	766.65	637.17	493.5	848.52	465.65	455.5	916.71	396.77	378.71	977.6	216.3	383.1	931.33	302.28	453.62	948.17	309.36	383.16	982.67	122.51	336.95	1118.6	99.649	343.87	1095.6	83.208	424.04	619.48	553.76	137.98	706.46	628.17	161.85	641.07	639.39	121.28	582.05	343.46	221.89	555.06	941.96	352.39	643.61	1556	248.32	574.04	440.71	158.16	538.73	261.56	233.51	665.36	733.23	110.69	499.22	178.39	244.07	822.68	1602.4	269.63	520.73	1065.7	463.54	550.35	35.227	297.83	339.09	49.592	273.47	519.09	29.867	207.21	959.73	97.055	421.11	394.5	83.33	225.01	512.43	266.42	166.76	867.76	875.16	5.61	1157.3	124.24	371.48	599.17	24.67	283.1	648.51	1223.6	39.636	934.09	34.849	376.64
423	2.115	650.76	1554.3	386.92	636.23	1424.2	313.73	548.06	1113.4	301.07	774.06	1345.3	304.7	563.56	1335.4	399.8	731.85	933.64	143.85	744.63	926.52	445.96	561.82	943.02	248.22	696.92	1378.7	466.04	612.86	1198.6	541.86	540.33	1084.4	557.71	548.44	937.71	586.89	584.72	795.64	550.85	512.74	810.03	578.82	543.5	748.36	588.44	682.47	1415.8	142.26	631.39	1091.8	18.461	605.04	1085.4	95.681	763.07	994.73	2.38	850.07	924.13	51.968	791.78	880.3	13.893	733.06	721.93	500.99	814.59	552.27	474.87	831.06	668.95	456.47	774.33	636.75	493.84	856.3	465.09	455.45	923.94	396.1	378.61	984.23	215.43	382.33	938.42	301.4	453.11	955.32	308.65	382.61	989.11	121.57	335.97	1124.7	99.123	343.29	1101.9	82.611	423.3	623.77	553	138.41	711.2	627.13	161.97	645.79	638.65	121.74	585.07	342.63	222.16	561.11	940.92	352.91	649.44	1554.7	249.07	577.82	440.26	158.47	540.87	261.38	233.62	670.25	732.49	111.03	500.72	178.43	244.21	828.27	1601.7	270.72	526.03	1064.4	463.75	550.41	35.27	297.77	339.54	50.903	273.04	519.18	29.854	207.25	966.19	95.901	419.9	395.22	84.286	224.74	514.74	266.38	167.02	875.69	875.32	6.5542	1163.5	123.89	370.85	599.23	24.582	283.25	655.2	1222.7	40.103	940.48	33.906	375.84
424	2.12	656.47	1553.3	387.7	642.15	1423.1	314.48	554.14	1112.4	301.59	780.05	1344.3	305.46	569.15	1334.1	400.01	737.6	932.35	144.17	750.99	925.61	446.22	567.92	942.02	248.81	702.16	1377.5	466.78	618.18	1197.5	542.11	545.33	1083.1	557.96	553.28	936.65	587.06	589.27	794.49	551.31	517.33	809	578.65	547.98	747.32	588.67	688.54	1415	142.78	638	1090.8	18.673	611.54	1084.5	95.892	770.2	994.28	2.9074	857.32	923.99	52.72	799.49	880	14.778	741.16	721.45	501.4	823.04	552.08	474.93	838.4	668.72	456.44	782.7	636.49	494.21	864.2	464.55	455.29	931.44	395.47	378.23	990.45	214.28	381.71	945.37	300.31	452.65	962.16	307.6	382.14	994.84	120.5	335.05	1130.5	97.997	342.44	1107.5	81.34	422.32	628.21	552.27	138.6	716	625.95	162.02	650.45	637.79	122.07	587.86	341.72	222.54	567.32	939.72	353.51	655.07	1553.9	249.78	581.97	439.65	158.68	543.07	260.93	233.78	675.58	731.67	111.54	502.06	178.45	244.3	833.89	1600.6	271.67	531.25	1063.2	464.07	550.54	35.371	297.78	339.68	52.217	272.86	519.23	29.847	207.22	971.93	94.578	418.69	395.67	85.324	224.52	517.19	266.31	166.93	883.39	875.46	7.25	1169.3	122.5	370.12	599.31	24.643	283.38	661.73	1221.8	40.622	946.13	32.977	375.02
